<svg xmlns="http://www.w3.org/2000/svg" width="131.000000pt" height="82.000000pt" viewBox="0 0 131.000000 82.000000"><path fill="#105fff" d="M690 638c-5-13-45-124-89-248-56-161-76-230-69-242 13-26 58-35 73-15 7 9 49 123 95 254 88 255 90 265 32 271-25 3-34-2-42-20zM335 502c-158-115-158-116-33-209 143-107 147-109 163-92 7 8 17 26 20 41 6 24 0 31-64 79-39 30-71 57-71 61 0 4 32 31 70 59 39 28 74 58 79 68 11 20-12 81-31 81-7-1-67-40-133-88zM815 558c-18-43-10-56 75-117 38-28 70-55 70-59 0-4-32-31-71-61-64-48-70-55-64-79 3-15 13-33 20-41 16-17 20-15 163 92 125 93 125 94-33 209-66 48-126 87-133 88-7 0-19-15-27-32z" transform="matrix(.1 0 0 -.1 0 82)"/></svg>